<?xml version="1.0" encoding="utf-8"?>
<svg viewBox="0 0 248.5 55.91" xmlns="http://www.w3.org/2000/svg">
  <g transform="matrix(1, 0, 0, 1, -31.238000869750977, -27.533000946044922)">
    <path class="cls-2" d="M 96.868 28.103 L 110.888 28.103 L 110.888 32.203 L 102.318 32.203 L 102.318 35.603 L 109.208 35.603 L 109.208 39.673 L 102.318 39.673 L 102.318 44.183 L 110.888 44.183 L 110.888 48.283 L 96.868 48.283 L 96.868 28.103 Z" style="fill: rgb(255, 255, 255);"/>
    <path class="cls-2" d="M 120.778 37.953 L 113.918 28.103 L 120.108 28.103 L 124.278 34.493 L 128.518 28.103 L 134.568 28.103 L 127.708 37.923 L 134.968 48.283 L 128.778 48.283 L 124.208 41.353 L 119.568 48.283 L 113.518 48.283 L 120.778 37.963 L 120.778 37.953 Z" style="fill: rgb(255, 255, 255);"/>
    <path class="cls-2" d="M 135.208 38.193 C 135.208 31.673 140.248 27.673 146.068 27.673 C 148.828 27.673 151.478 28.413 153.158 29.693 L 153.158 34.323 C 151.548 32.943 149.388 31.973 146.968 31.973 C 143.568 31.973 140.978 34.163 140.978 38.193 C 140.978 42.223 143.568 44.413 146.968 44.413 C 149.388 44.413 151.538 43.433 153.158 42.063 L 153.158 46.703 C 151.478 47.983 148.818 48.723 146.068 48.723 C 140.248 48.723 135.208 44.723 135.208 38.203 L 135.208 38.193 Z" style="fill: rgb(255, 255, 255);"/>
    <path class="cls-2" d="M 157.028 28.103 L 171.048 28.103 L 171.048 32.203 L 162.478 32.203 L 162.478 35.603 L 169.368 35.603 L 169.368 39.673 L 162.478 39.673 L 162.478 44.183 L 171.048 44.183 L 171.048 48.283 L 157.028 48.283 L 157.028 28.103 Z" style="fill: rgb(255, 255, 255);"/>
    <path class="cls-2" d="M 174.818 28.103 L 180.268 28.103 L 180.268 44.173 L 188.838 44.173 L 188.838 48.273 L 174.818 48.273 L 174.818 28.103 Z" style="fill: rgb(255, 255, 255);"/>
    <path class="cls-2" d="M 190.418 46.063 L 191.628 42.093 C 193.138 43.373 195.328 44.783 197.978 44.783 C 199.628 44.783 200.908 44.143 200.908 42.733 C 200.908 41.423 200.038 40.953 197.138 40.213 C 192.528 39.133 190.948 36.683 190.948 33.693 C 190.948 30.023 193.838 27.643 198.348 27.643 C 201.008 27.643 203.388 28.583 204.968 29.693 L 203.858 33.323 C 202.348 32.383 200.228 31.573 198.278 31.573 C 196.828 31.573 195.928 32.183 195.928 33.183 C 195.928 34.123 196.538 34.663 198.818 35.233 C 203.858 36.413 205.908 38.533 205.908 42.163 C 205.908 46.903 202.078 48.683 197.968 48.683 C 194.508 48.683 191.988 47.373 190.398 46.063 L 190.418 46.063 Z" style="fill: rgb(255, 255, 255);"/>
    <path class="cls-2" d="M 209.518 28.103 L 214.968 28.103 L 214.968 48.283 L 209.518 48.283 L 209.518 28.103 Z" style="fill: rgb(255, 255, 255);"/>
    <path class="cls-2" d="M 217.958 38.193 C 217.958 32.003 222.968 27.533 229.158 27.533 C 235.348 27.533 240.288 32.003 240.288 38.193 C 240.288 44.383 235.308 48.853 229.158 48.853 C 223.008 48.853 217.958 44.383 217.958 38.193 Z M 234.498 38.193 C 234.498 34.323 232.518 31.803 229.148 31.803 C 225.778 31.803 223.738 34.323 223.738 38.193 C 223.738 42.063 225.758 44.583 229.148 44.583 C 232.538 44.583 234.498 42.063 234.498 38.193 Z" style="fill: rgb(255, 255, 255);"/>
    <path class="cls-2" d="M 261.068 48.283 L 255.118 48.283 L 249.838 40.513 L 248.358 40.513 L 248.358 48.283 L 242.908 48.283 L 242.908 28.103 L 252.088 28.103 C 256.998 28.103 259.118 31.063 259.118 34.323 C 259.118 37.013 257.668 39.203 255.188 39.973 L 261.068 48.283 Z M 250.708 37.053 C 252.788 37.053 253.738 36.113 253.738 34.393 C 253.738 32.673 252.798 31.703 250.708 31.703 L 248.358 31.703 L 248.358 37.053 L 250.708 37.053 Z" style="fill: rgb(255, 255, 255);"/>
    <path class="cls-2" d="M 96.868 65.563 L 96.868 54.703 L 102.378 54.703 L 102.378 65.263 C 102.378 68.823 103.788 70.743 106.678 70.743 C 109.568 70.743 111.018 68.823 111.018 65.263 L 111.018 54.703 L 116.368 54.703 L 116.368 65.563 C 116.368 72.393 112.068 75.453 106.618 75.453 C 101.168 75.453 96.868 72.393 96.868 65.563 Z" style="fill: rgb(255, 255, 255);"/>
    <path class="cls-2" d="M 120.238 54.703 L 124.378 54.703 L 133.528 66.303 L 133.528 54.703 L 138.338 54.703 L 138.338 74.883 L 134.198 74.883 L 125.048 63.283 L 125.048 74.883 L 120.238 74.883 L 120.238 54.703 Z" style="fill: rgb(255, 255, 255);"/>
    <path class="cls-2" d="M 142.808 54.703 L 148.258 54.703 L 148.258 74.883 L 142.808 74.883 L 142.808 54.703 Z" style="fill: rgb(255, 255, 255);"/>
    <path class="cls-2" d="M 150.608 54.703 L 156.228 54.703 L 161.368 67.613 L 166.478 54.703 L 171.958 54.703 L 163.488 74.883 L 159.088 74.883 L 150.618 54.703 L 150.608 54.703 Z" style="fill: rgb(255, 255, 255);"/>
    <path class="cls-2" d="M 174.008 54.703 L 188.028 54.703 L 188.028 58.803 L 179.458 58.803 L 179.458 62.203 L 186.348 62.203 L 186.348 66.273 L 179.458 66.273 L 179.458 70.783 L 188.028 70.783 L 188.028 74.883 L 174.008 74.883 L 174.008 54.703 Z" style="fill: rgb(255, 255, 255);"/>
    <path class="cls-2" d="M 210.558 74.873 L 204.608 74.873 L 199.328 67.103 L 197.848 67.103 L 197.848 74.873 L 192.398 74.873 L 192.398 54.703 L 201.578 54.703 C 206.488 54.703 208.608 57.663 208.608 60.923 C 208.608 63.613 207.158 65.803 204.678 66.573 L 210.558 74.883 L 210.558 74.873 Z M 200.198 63.643 C 202.278 63.643 203.228 62.703 203.228 60.983 C 203.228 59.263 202.288 58.293 200.198 58.293 L 197.848 58.293 L 197.848 63.643 L 200.198 63.643 Z" style="fill: rgb(255, 255, 255);"/>
    <path class="cls-2" d="M 212.178 72.653 L 213.388 68.683 C 214.898 69.963 217.088 71.373 219.738 71.373 C 221.388 71.373 222.668 70.733 222.668 69.323 C 222.668 68.013 221.798 67.543 218.898 66.803 C 214.288 65.723 212.708 63.273 212.708 60.283 C 212.708 56.623 215.598 54.233 220.108 54.233 C 222.768 54.233 225.148 55.173 226.728 56.283 L 225.618 59.913 C 224.108 58.973 221.988 58.163 220.038 58.163 C 218.588 58.163 217.688 58.773 217.688 59.773 C 217.688 60.713 218.298 61.253 220.578 61.823 C 225.618 63.003 227.668 65.113 227.668 68.753 C 227.668 73.493 223.838 75.273 219.728 75.273 C 216.268 75.273 213.748 73.963 212.158 72.653 L 212.178 72.653 Z" style="fill: rgb(255, 255, 255);"/>
    <path class="cls-2" d="M 231.278 54.703 L 236.728 54.703 L 236.728 74.883 L 231.278 74.883 L 231.278 54.703 Z" style="fill: rgb(255, 255, 255);"/>
    <path class="cls-2" d="M 245.908 58.803 L 239.418 58.803 L 239.418 54.703 L 257.848 54.703 L 257.848 58.803 L 251.358 58.803 L 251.358 74.873 L 245.908 74.873 L 245.908 58.803 Z" style="fill: rgb(255, 255, 255);"/>
    <path class="cls-2" d="M 266.378 66.803 L 258.478 54.703 L 264.468 54.703 L 269.178 62.333 L 273.888 54.703 L 279.738 54.703 L 271.838 66.803 L 271.838 74.873 L 266.388 74.873 L 266.388 66.803 L 266.378 66.803 Z" style="fill: rgb(255, 255, 255);"/>
    <path class="cls-1" d="M 31.238 28.103 L 31.238 55.453 C 31.478 63.313 35.038 69.073 39.578 73.323 L 39.578 54.913 L 43.768 57.953 L 43.768 76.683 C 46.178 78.353 48.648 79.703 50.908 80.803 L 50.968 50.123 L 43.788 54.103 L 40.028 51.353 L 55.138 42.993 L 55.138 82.703 C 55.778 82.973 56.378 83.223 56.908 83.443 C 57.438 83.223 58.038 82.973 58.678 82.703 L 58.678 42.983 L 73.788 51.343 L 70.028 54.093 L 62.858 50.113 L 62.918 80.793 C 65.178 79.693 67.658 78.343 70.058 76.673 L 70.058 57.953 L 74.248 54.913 L 74.248 73.313 C 78.788 69.063 82.348 63.303 82.588 55.443 L 82.588 28.103 L 31.238 28.103 Z M 74.238 47.683 L 56.908 38.073 L 39.578 47.683 L 39.578 42.853 L 56.908 33.253 L 74.238 42.853 L 74.238 47.683 Z" style="fill: rgb(255, 255, 255);"/>
  </g>
</svg>